<?xml version="1.0" encoding="UTF-8"?>
<svg width="82px" height="82px" viewBox="0 0 82 82" version="1.1" xmlns="http://www.w3.org/2000/svg" xmlns:xlink="http://www.w3.org/1999/xlink">
    <title>AT&amp;T</title>
    <defs>
        <circle id="path-1" cx="36" cy="36" r="36"></circle>
        <filter x="-11.1%" y="-9.7%" width="122.2%" height="122.2%" filterUnits="objectBoundingBox" id="filter-2">
            <feOffset dx="0" dy="1" in="SourceAlpha" result="shadowOffsetOuter1"></feOffset>
            <feGaussianBlur stdDeviation="2.5" in="shadowOffsetOuter1" result="shadowBlurOuter1"></feGaussianBlur>
            <feColorMatrix values="0 0 0 0 0   0 0 0 0 0   0 0 0 0 0  0 0 0 0.2 0" type="matrix" in="shadowBlurOuter1" result="shadowMatrixOuter1"></feColorMatrix>
            <feMorphology radius="1" operator="erode" in="SourceAlpha" result="shadowSpreadOuter2"></feMorphology>
            <feOffset dx="0" dy="3" in="shadowSpreadOuter2" result="shadowOffsetOuter2"></feOffset>
            <feGaussianBlur stdDeviation="0.5" in="shadowOffsetOuter2" result="shadowBlurOuter2"></feGaussianBlur>
            <feColorMatrix values="0 0 0 0 0   0 0 0 0 0   0 0 0 0 0  0 0 0 0.12 0" type="matrix" in="shadowBlurOuter2" result="shadowMatrixOuter2"></feColorMatrix>
            <feOffset dx="0" dy="2" in="SourceAlpha" result="shadowOffsetOuter3"></feOffset>
            <feGaussianBlur stdDeviation="1" in="shadowOffsetOuter3" result="shadowBlurOuter3"></feGaussianBlur>
            <feColorMatrix values="0 0 0 0 0   0 0 0 0 0   0 0 0 0 0  0 0 0 0.14 0" type="matrix" in="shadowBlurOuter3" result="shadowMatrixOuter3"></feColorMatrix>
            <feMerge>
                <feMergeNode in="shadowMatrixOuter1"></feMergeNode>
                <feMergeNode in="shadowMatrixOuter2"></feMergeNode>
                <feMergeNode in="shadowMatrixOuter3"></feMergeNode>
            </feMerge>
        </filter>
    </defs>
    <g id="Home" stroke="none" stroke-width="1" fill="none" fill-rule="evenodd">
        <g id="DS/Home-Page---Update" transform="translate(-69.000000, -1898.000000)">
            <g id="Brands-You-Love" transform="translate(74.000000, 1686.000000)">
                <g id="AT&amp;T" transform="translate(0.000000, 216.000000)">
                    <g id="Oval">
                        <use fill="black" fill-opacity="1" filter="url(#filter-2)" xlink:href="#path-1"></use>
                        <use fill="#FFFFFF" fill-rule="evenodd" xlink:href="#path-1"></use>
                    </g>
                    <path d="M25.0150714,49.8009784 C28.0758234,52.4239939 31.91759,54 36.0857233,54 C40.6470419,54 44.8053412,52.1251816 47.9789211,49.0476294 C48.0173791,49.0100106 47.9984135,48.9851257 47.9604823,49.0100106 C46.5363928,50.0629495 42.4775752,52.361393 36.0858989,52.361393 C30.5312561,52.361393 27.0209488,50.9893257 25.0386028,49.7643316 C25.0006716,49.7436267 24.986623,49.7751215 25.0150714,49.8009784 M37.4714936,51 C41.8997701,51 46.7659032,49.7316738 49.6762535,47.2210446 C50.4726747,46.5369963 51.2312877,45.6265564 51.9106962,44.403012 C52.3018177,43.6990096 52.6843624,42.862593 52.9959293,42.0404293 C53.0097573,42.0003372 52.9862148,41.9808429 52.9575086,42.0259005 C50.251077,46.2105584 42.4138555,48.8206822 34.3215167,48.8206822 C28.6015502,48.8206822 22.4469652,46.8988366 20.0373975,43.2292149 C20.0136799,43.1952838 19.9899623,43.2098126 20.0044029,43.2488012 C22.2490852,48.2615999 29.0589234,51 37.4714936,51 M32.3820536,43.0306906 C23.1695203,43.0306906 18.825621,38.8426049 18.0376436,35.9845517 C18.0279263,35.9431938 18,35.9522515 18,35.9894224 C18,36.9515918 18.0986613,38.1932688 18.2684078,39.017436 C18.3493854,39.4186248 18.6838884,40.0482219 19.174306,40.550071 C21.4050848,42.8197141 26.9667117,46 36.5985774,46 C49.7215831,46 52.7221302,41.7331292 53.3348459,40.3299513 C53.7730002,39.326424 54,37.5129142 54,35.9895078 C54,35.6208756 53.9905453,35.3264142 53.9762758,35.0373361 C53.9762758,34.990424 53.948437,34.9865787 53.9388072,35.0322946 C53.2830202,38.4657695 42.0709101,43.0306906 32.3820536,43.0306906 M19.3230594,28.2368355 C18.7968372,29.2912824 18.2135421,31.0701933 18.0401419,31.9908848 C17.964132,32.3853661 17.9965082,32.5748088 18.133518,32.869194 C19.2342212,35.2271827 24.8017915,39 37.7887455,39 C45.7117491,39 51.8665415,37.0346422 52.8636583,33.4481837 C53.0472688,32.7879539 53.0571301,32.0908929 52.8212464,31.1516096 C52.557699,30.102009 52.0641148,28.878033 51.6463659,28.0185799 C51.6325777,27.99056 51.6082301,27.9947013 51.6132043,28.0278318 C51.7683657,32.731826 38.7762629,35.7635258 32.2210006,35.7635258 C25.1204919,35.7635258 19.1966962,32.9070825 19.1966962,29.3002699 C19.1966962,28.9537219 19.2677318,28.6070859 19.3563955,28.2463517 C19.3652968,28.2133975 19.3373712,28.2079345 19.3230594,28.2368355 M47.9851474,22.285193 C48.0617601,22.4064501 48.0999778,22.5358567 48.0999778,22.7100406 C48.0999778,24.7551123 41.9025937,28.3729441 32.037198,28.3729441 C24.7884283,28.3729441 23.4313013,25.6571075 23.4313013,23.9299551 C23.4313013,23.3125648 23.6657504,22.6808458 24.1820882,22.0392757 C24.210286,22.0011254 24.1863445,21.9864384 24.1538018,22.0148273 C23.2121037,22.8208198 22.3468411,23.7277405 21.5878076,24.7067527 C21.2251386,25.1697507 21,25.5799113 21,25.8256495 C21,29.4048832 29.8863667,32 38.195389,32 C47.0487697,32 51,29.0810533 51,26.5158477 C51,25.599076 50.6466415,25.063897 49.7427178,24.0263159 C49.1559743,23.351342 48.6009754,22.8017446 48.0135225,22.2607445 C47.9851474,22.2371021 47.9653735,22.2563564 47.9851474,22.285193 M44.9094382,20.4744861 C42.1985178,18.897298 39.0504401,18 35.6565549,18 C32.2390039,18 28.9960871,18.9286368 26.2754012,20.5475816 C25.4593274,21.0350839 25,21.4257518 25,21.9279414 C25,23.4082952 28.5643844,25 34.8880766,25 C41.146138,25 46,23.2565538 46,21.5783471 C46,21.1777737 45.6392947,20.8975175 44.9094382,20.4744861" fill="#00A8E0" fill-rule="nonzero"></path>
                </g>
            </g>
        </g>
    </g>
</svg>