<?xml version="1.0" encoding="UTF-8"?>
<svg width="82px" height="82px" viewBox="0 0 82 82" version="1.1" xmlns="http://www.w3.org/2000/svg" xmlns:xlink="http://www.w3.org/1999/xlink">
    <title>7223ACF5-D1C6-4615-95B6-765609D80A51</title>
    <defs>
        <circle id="path-1" cx="36" cy="36" r="36"></circle>
        <filter x="-11.1%" y="-9.7%" width="122.2%" height="122.2%" filterUnits="objectBoundingBox" id="filter-2">
            <feOffset dx="0" dy="1" in="SourceAlpha" result="shadowOffsetOuter1"></feOffset>
            <feGaussianBlur stdDeviation="2.5" in="shadowOffsetOuter1" result="shadowBlurOuter1"></feGaussianBlur>
            <feColorMatrix values="0 0 0 0 0   0 0 0 0 0   0 0 0 0 0  0 0 0 0.2 0" type="matrix" in="shadowBlurOuter1" result="shadowMatrixOuter1"></feColorMatrix>
            <feMorphology radius="1" operator="erode" in="SourceAlpha" result="shadowSpreadOuter2"></feMorphology>
            <feOffset dx="0" dy="3" in="shadowSpreadOuter2" result="shadowOffsetOuter2"></feOffset>
            <feGaussianBlur stdDeviation="0.5" in="shadowOffsetOuter2" result="shadowBlurOuter2"></feGaussianBlur>
            <feColorMatrix values="0 0 0 0 0   0 0 0 0 0   0 0 0 0 0  0 0 0 0.12 0" type="matrix" in="shadowBlurOuter2" result="shadowMatrixOuter2"></feColorMatrix>
            <feOffset dx="0" dy="2" in="SourceAlpha" result="shadowOffsetOuter3"></feOffset>
            <feGaussianBlur stdDeviation="1" in="shadowOffsetOuter3" result="shadowBlurOuter3"></feGaussianBlur>
            <feColorMatrix values="0 0 0 0 0   0 0 0 0 0   0 0 0 0 0  0 0 0 0.14 0" type="matrix" in="shadowBlurOuter3" result="shadowMatrixOuter3"></feColorMatrix>
            <feMerge>
                <feMergeNode in="shadowMatrixOuter1"></feMergeNode>
                <feMergeNode in="shadowMatrixOuter2"></feMergeNode>
                <feMergeNode in="shadowMatrixOuter3"></feMergeNode>
            </feMerge>
        </filter>
        <polygon id="path-3" points="0.000114285714 0.138285714 38.7188571 0.138285714 38.7188571 38.6234286 0.000114285714 38.6234286"></polygon>
    </defs>
    <g id="Home" stroke="none" stroke-width="1" fill="none" fill-rule="evenodd">
        <g id="DS/Home-Page" transform="translate(-872.000000, -2011.000000)">
            <g id="Brands-You-Love" transform="translate(74.000000, 1798.000000)">
                <g id="Right" transform="translate(707.000000, 0.000000)">
                    <g id="Facebook" transform="translate(96.000000, 217.000000)">
                        <g id="Oval">
                            <use fill="black" fill-opacity="1" filter="url(#filter-2)" xlink:href="#path-1"></use>
                            <use fill="#FFFFFF" fill-rule="evenodd" xlink:href="#path-1"></use>
                        </g>
                        <g transform="translate(17.000000, 16.000000)">
                            <g id="Group-3" transform="translate(0.000000, 1.005029)">
                                <mask id="mask-4" fill="white">
                                    <use xlink:href="#path-3"></use>
                                </mask>
                                <g id="Clip-2"></g>
                                <path d="M38.7189714,19.4977143 C38.7189714,8.80628571 30.0504,0.137714286 19.3601143,0.137714286 C8.66868571,0.137714286 0.000114285714,8.80628571 0.000114285714,19.4977143 C0.000114285714,29.1594286 7.07782857,37.1685714 16.3349714,38.6234286 L16.3349714,25.0942857 L11.4184,25.0942857 L11.4184,19.4977143 L16.3349714,19.4977143 L16.3349714,15.2314286 C16.3349714,10.38 19.2264,7.69771429 23.6469714,7.69771429 C25.7658286,7.69771429 27.9818286,8.076 27.9818286,8.076 L27.9818286,12.8405714 L25.5395429,12.8405714 C23.1361143,12.8405714 22.3841143,14.3331429 22.3841143,15.8657143 L22.3841143,19.4977143 L27.7532571,19.4977143 L26.8949714,25.0942857 L22.3841143,25.0942857 L22.3841143,38.6234286 C31.6412571,37.172 38.7189714,29.1628571 38.7189714,19.4977143" id="Fill-1" fill="#4472B8" mask="url(#mask-4)"></path>
                            </g>
                            <path d="M26.8953143,26.0998857 L27.7536,20.5033143 L22.3844571,20.5033143 L22.3844571,16.8701714 C22.3844571,15.3410286 23.1330286,13.8461714 25.5387429,13.8461714 L27.9821714,13.8461714 L27.9821714,9.0816 C27.9821714,9.0816 25.7661714,8.70331429 23.6473143,8.70331429 C19.2267429,8.70331429 16.3353143,11.3821714 16.3353143,16.2370286 L16.3353143,20.5033143 L11.4187429,20.5033143 L11.4187429,26.0998857 L16.3353143,26.0998857 L16.3353143,39.6278857 C17.3204571,39.7833143 18.3307429,39.8621714 19.3593143,39.8621714 C20.3890286,39.8621714 21.3981714,39.7810286 22.3844571,39.6278857 L22.3844571,26.0998857 L26.8953143,26.0998857 Z" id="Fill-4" fill="#FEFEFE"></path>
                        </g>
                    </g>
                </g>
            </g>
        </g>
    </g>
</svg>