<svg width="32" height="32" xmlns="http://www.w3.org/2000/svg"><g fill="none" fill-rule="evenodd"><circle fill="#FFF" cx="16" cy="16" r="16"/><path d="M19.665 13.182a.292.292 0 00-.216-.099H17.25v-.822c0-.163.035-.35.297-.35h1.75a.256.256 0 00.205-.088.292.292 0 00.081-.198V9.292A.292.292 0 0019.292 9h-2.526c-2.8 0-3.016 2.392-3.016 3.12v.963h-1.458a.292.292 0 00-.292.292v2.333c0 .161.13.292.292.292h1.458v6.708c0 .161.13.292.292.292h2.916c.161 0 .292-.13.292-.292V16h1.954c.15 0 .277-.113.292-.262l.245-2.334a.29.29 0 00-.076-.222z" fill="#949494"/></g></svg>