<svg width="32" height="32" xmlns="http://www.w3.org/2000/svg"><g fill="none" fill-rule="evenodd"><circle fill="#FFF" cx="16" cy="16" r="16"/><path d="M9.333 13.667H12c.184 0 .333.149.333.333v8.667A.333.333 0 0112 23H9.333A.333.333 0 019 22.667V14c0-.184.15-.333.333-.333zM10.653 9a1.66 1.66 0 011.654 1.667c0 .92-.74 1.666-1.654 1.666A1.66 1.66 0 019 10.667C9 9.746 9.74 9 10.653 9zM20 23h2c.184 0 .333-.15.333-.333v-5.6c0-2.514-1.42-3.734-3.406-3.734a2.808 2.808 0 00-2.114.847.273.273 0 01-.48-.18.333.333 0 00-.333-.333h-2a.333.333 0 00-.333.333v8.667c0 .184.149.333.333.333h2c.184 0 .333-.15.333-.333v-5a1.666 1.666 0 113.334 0v5c0 .184.149.333.333.333z" fill="#949494"/></g></svg>