<?xml version="1.0" encoding="UTF-8"?>
<svg width="82px" height="82px" viewBox="0 0 82 82" version="1.1" xmlns="http://www.w3.org/2000/svg" xmlns:xlink="http://www.w3.org/1999/xlink">
    <title>434435C8-2567-4D98-A426-5337EAD81E92</title>
    <defs>
        <circle id="path-1" cx="36" cy="36" r="36"></circle>
        <filter x="-11.1%" y="-9.7%" width="122.2%" height="122.2%" filterUnits="objectBoundingBox" id="filter-2">
            <feOffset dx="0" dy="1" in="SourceAlpha" result="shadowOffsetOuter1"></feOffset>
            <feGaussianBlur stdDeviation="2.5" in="shadowOffsetOuter1" result="shadowBlurOuter1"></feGaussianBlur>
            <feColorMatrix values="0 0 0 0 0   0 0 0 0 0   0 0 0 0 0  0 0 0 0.2 0" type="matrix" in="shadowBlurOuter1" result="shadowMatrixOuter1"></feColorMatrix>
            <feMorphology radius="1" operator="erode" in="SourceAlpha" result="shadowSpreadOuter2"></feMorphology>
            <feOffset dx="0" dy="3" in="shadowSpreadOuter2" result="shadowOffsetOuter2"></feOffset>
            <feGaussianBlur stdDeviation="0.5" in="shadowOffsetOuter2" result="shadowBlurOuter2"></feGaussianBlur>
            <feColorMatrix values="0 0 0 0 0   0 0 0 0 0   0 0 0 0 0  0 0 0 0.12 0" type="matrix" in="shadowBlurOuter2" result="shadowMatrixOuter2"></feColorMatrix>
            <feOffset dx="0" dy="2" in="SourceAlpha" result="shadowOffsetOuter3"></feOffset>
            <feGaussianBlur stdDeviation="1" in="shadowOffsetOuter3" result="shadowBlurOuter3"></feGaussianBlur>
            <feColorMatrix values="0 0 0 0 0   0 0 0 0 0   0 0 0 0 0  0 0 0 0.14 0" type="matrix" in="shadowBlurOuter3" result="shadowMatrixOuter3"></feColorMatrix>
            <feMerge>
                <feMergeNode in="shadowMatrixOuter1"></feMergeNode>
                <feMergeNode in="shadowMatrixOuter2"></feMergeNode>
                <feMergeNode in="shadowMatrixOuter3"></feMergeNode>
            </feMerge>
        </filter>
    </defs>
    <g id="Home" stroke="none" stroke-width="1" fill="none" fill-rule="evenodd">
        <g id="DS/Home-Page" transform="translate(-165.000000, -1938.000000)">
            <g id="Brands-You-Love" transform="translate(74.000000, 1798.000000)">
                <g id="Left">
                    <g id="Starbucks" transform="translate(96.000000, 144.000000)">
                        <g id="Oval">
                            <use fill="black" fill-opacity="1" filter="url(#filter-2)" xlink:href="#path-1"></use>
                            <use fill="#FFFFFF" fill-rule="evenodd" xlink:href="#path-1"></use>
                        </g>
                        <g transform="translate(17.000000, 18.000000)" fill="#0A734D" id="Fill-1">
                            <path d="M29.2527,14.98455 L29.2527,14.98455 C31.8402,14.087925 33.54345,16.657425 35.547075,16.06005 C33.607575,14.002425 32.025825,11.66805 32.239575,8.9703 C32.246325,8.8128 32.10345,8.72055 31.96845,8.8128 C30.984075,9.4968 30.29445,10.6353 30.079575,11.909925 C28.704825,11.025675 27.100575,10.906425 25.7742,11.446425 C27.13545,12.400425 28.320075,13.604175 29.2527,14.98455 M26.36595,7.03305 L26.36595,7.03305 C25.04745,7.126425 23.892075,7.580925 22.9662,8.3358 C23.365575,7.218675 23.86395,6.242175 24.49845,5.29605 C22.81545,5.4738 21.4047,6.0858 20.377575,7.139925 L19.57995,5.0328 L21.36195,3.458925 L18.9747,3.2958 L18.019575,1.073925 L17.06445,3.2958 L14.676075,3.458925 L16.46595,5.0328 L15.659325,7.139925 C14.633325,6.0858 13.229325,5.4738 11.54745,5.29605 C12.174075,6.242175 12.680325,7.218675 13.071825,8.3358 C12.14595,7.580925 10.997325,7.126425 9.6732,7.03305 C10.470825,8.051175 11.16945,9.133425 11.690325,10.30005 C11.746575,10.436175 11.87595,10.478925 12.009825,10.40805 C13.821075,9.5103 15.859575,9.005175 18.019575,9.005175 C20.179575,9.005175 22.21695,9.5103 24.027075,10.40805 C24.164325,10.478925 24.29145,10.436175 24.348825,10.30005 C24.8697,9.133425 25.57395,8.051175 26.36595,7.03305 M14.833575,13.3398 L14.833575,13.3398 C15.182325,12.9843 15.9237,12.9978 16.6932,13.282425 C16.721325,12.906675 16.03845,12.485925 15.35445,12.485925 C14.8617,12.485925 14.61195,12.656925 14.61195,12.8988 C14.61195,13.055175 14.6682,13.1913 14.833575,13.3398 M20.6847,12.485925 L20.6847,12.485925 C20.285325,12.485925 19.815075,12.607425 19.51695,12.94155 C19.4877,13.02705 19.4877,13.16205 19.53045,13.248675 C20.2572,12.9978 20.89845,12.992175 21.21345,13.3398 C21.376575,13.1913 21.426075,13.055175 21.426075,12.8988 C21.426075,12.656925 21.1842,12.485925 20.6847,12.485925 M18.019575,9.8163 L18.019575,9.8163 C16.343325,9.8163 14.9472,10.755675 14.57595,11.9808 C14.547825,12.07305 14.5917,12.137175 14.69745,12.08655 C14.9967,11.952675 15.339825,11.88855 15.70995,11.88855 C16.39395,11.88855 16.993575,12.137175 17.349075,12.571425 C17.506575,13.091175 17.520075,13.838175 17.342325,14.272425 C17.06445,14.209425 16.964325,13.9878 16.685325,13.9878 C16.415325,13.9878 16.20045,14.1813 15.738075,14.1813 C15.267825,14.1813 15.2172,13.966425 14.9112,13.966425 C14.54895,13.966425 14.4837,14.337675 14.4837,14.75055 C14.4837,16.614675 16.194825,19.177425 18.019575,19.177425 C19.844325,19.177425 21.554325,16.614675 21.554325,14.75055 C21.554325,14.337675 21.468825,13.9743 21.0987,13.923675 C20.906325,14.0598 20.735325,14.1813 20.3067,14.1813 C19.83645,14.1813 19.7082,13.9878 19.437075,13.9878 C19.1097,13.9878 19.13895,14.6853 18.7452,14.72805 C18.483075,14.094675 18.46845,13.2903 18.68895,12.571425 C19.0467,12.137175 19.6452,11.88855 20.328075,11.88855 C20.699325,11.88855 21.0492,11.952675 21.34845,12.087675 C21.4542,12.137175 21.491325,12.07305 21.462075,11.9808 C21.0987,10.755675 19.6947,9.8163 18.019575,9.8163 M10.2717,11.446425 L10.2717,11.446425 C8.9442,10.906425 7.334325,11.025675 5.966325,11.909925 C5.75145,10.6353 5.0607,9.4968 4.069575,8.8128 C3.934575,8.72055 3.7917,8.8128 3.806325,8.9703 C4.0122,11.66805 2.4372,14.002425 0.498825,16.06005 C2.494575,16.657425 4.197825,14.087925 6.792075,14.98455 C7.719075,13.604175 8.902575,12.400425 10.2717,11.446425 M36.0252,18.992925 L36.0252,18.992925 C36.003825,19.427175 35.961075,19.85355 35.91045,20.2743 C33.87195,20.615175 33.137325,18.792675 31.049325,18.88605 C31.1697,19.32705 31.2777,19.782675 31.348575,20.246175 C33.0732,20.2383 33.771825,21.8538 35.68995,21.61305 C35.5887,22.10355 35.468325,22.595175 35.32545,23.072175 C33.807825,23.220675 33.272325,21.71205 31.519575,21.7548 C31.533075,22.00455 31.539825,22.253175 31.539825,22.50855 C31.539825,22.651425 31.539825,22.793175 31.533075,22.9293 C33.029325,22.9158 33.515325,24.296175 34.941825,24.23205 C34.7697,24.7158 34.570575,25.18605 34.34895,25.648425 C33.32295,25.598925 32.9742,24.28155 31.4127,24.38955 C31.3632,24.723675 31.305825,25.0578 31.23495,25.385175 C32.588325,25.292925 32.88195,26.539425 33.850575,26.638425 C33.5997,27.0873 33.337575,27.5283 33.051825,27.947925 C32.48145,27.641925 31.983075,26.71605 30.89295,26.658675 C30.9987,26.3178 31.098825,25.961175 31.184325,25.61355 C30.214575,25.61355 29.109825,25.23555 28.18395,24.38955 C28.482075,22.67955 25.831575,20.943675 25.831575,19.690425 C25.831575,18.331425 26.522325,17.5833 26.522325,15.746175 C26.522325,14.39505 25.858575,12.913425 24.861825,11.909925 C24.670575,11.7108 24.470325,11.554425 24.24195,11.410425 C25.161075,12.5433 25.858575,13.8888 25.858575,15.440175 C25.858575,17.163675 25.06095,18.074925 25.06095,19.66905 C25.06095,21.256425 27.39195,22.637925 27.39195,24.273675 C27.39195,24.921675 27.186075,25.556175 26.502075,26.7948 C27.548325,27.842175 28.909575,28.411425 29.793825,28.411425 C30.079575,28.411425 30.2292,28.31805 30.3372,28.09755 C30.4227,27.905175 30.507075,27.70605 30.585825,27.513675 C31.533075,27.549675 31.96845,28.411425 32.489325,28.7523 C32.203575,29.13705 31.897575,29.507175 31.582575,29.869425 C31.23495,29.47905 30.756825,28.83105 30.066075,28.645425 C29.94345,28.8873 29.816325,29.122425 29.67345,29.35755 C30.27195,29.513925 30.6792,30.119175 30.99195,30.510675 C30.6567,30.8673 30.3012,31.201425 29.92995,31.52205 C29.701575,31.165425 29.34495,30.710925 28.938825,30.467925 C28.797075,30.66705 28.639575,30.8673 28.482075,31.059675 C28.81845,31.286925 29.12445,31.6998 29.31795,32.0418 C28.896075,32.382675 28.45395,32.7033 27.998325,33.0093 C27.771075,31.18005 25.275825,29.9268 25.9452,27.80505 C25.7247,28.1763 25.460325,28.64655 25.460325,29.20905 C25.460325,30.7458 27.100575,31.96305 27.228825,33.494175 C26.89245,33.6933 26.544825,33.885675 26.187075,34.063425 C26.130825,32.39055 24.398325,30.553425 24.398325,29.17305 C24.398325,27.635175 26.416575,26.09055 26.416575,24.2748 C26.416575,22.466925 24.08445,21.206925 24.08445,19.611675 C24.08445,18.01755 25.075575,17.09955 25.075575,15.0633 C25.075575,13.568175 24.362325,12.0528 23.26545,11.08305 C23.073075,10.91205 22.8807,10.778175 22.652325,10.656675 C23.6862,11.8953 24.283575,13.02705 24.283575,14.735925 C24.283575,16.657425 23.151825,17.719425 23.151825,19.598175 C23.151825,21.476925 25.4322,22.5243 25.4322,24.2748 C25.4322,26.033175 23.3082,27.506925 23.3082,29.30805 C23.3082,30.94605 25.183575,32.582925 25.2117,34.5258 C24.80445,34.70355 24.3837,34.8678 23.9562,35.017425 C24.1992,33.053175 22.089825,31.023675 22.089825,29.421675 C22.089825,27.671175 24.29145,26.1693 24.29145,24.2748 C24.29145,22.3893 22.053825,21.512925 22.053825,19.57005 C22.053825,17.6328 23.428575,16.558425 23.428575,14.423175 C23.428575,12.7503 22.602825,11.248425 21.39795,10.32255 C21.3687,10.30005 21.34845,10.2798 21.3192,10.258425 C21.205575,10.179675 21.113325,10.2798 21.1977,10.379925 C22.047075,11.439675 22.5027,12.52305 22.5027,14.110425 C22.5027,16.074675 20.9277,17.66205 20.9277,19.5633 C20.9277,21.79755 23.043825,22.437675 23.043825,24.2748 C23.043825,26.118675 20.7702,27.585675 20.7702,29.536425 C20.7702,31.3443 22.92345,33.3513 22.5522,35.444925 C22.1247,35.5518 21.682575,35.6508 21.24045,35.72955 C21.646575,33.1308 19.5372,31.2588 19.5372,29.56455 C19.5372,27.720675 21.889575,26.075925 21.889575,24.2748 C21.889575,22.58055 20.199825,22.025925 19.979325,20.288925 C19.950075,20.0538 19.758825,19.87605 19.49445,19.9188 C19.151325,19.9818 18.710325,20.210175 18.019575,20.210175 C17.3277,20.210175 16.89345,19.9818 16.543575,19.9188 C16.287075,19.87605 16.0947,20.0538 16.057575,20.288925 C15.8382,22.025925 14.14845,22.58055 14.14845,24.2748 C14.14845,26.075925 16.507575,27.720675 16.507575,29.56455 C16.507575,31.2588 14.39145,33.1308 14.79645,35.72955 C14.35545,35.6508 13.913325,35.5518 13.4847,35.444925 C13.114575,33.3513 15.267825,31.3443 15.267825,29.536425 C15.267825,27.585675 12.993075,26.118675 12.993075,24.2748 C12.993075,22.437675 15.1182,21.79755 15.1182,19.5633 C15.1182,17.66205 13.535325,16.074675 13.535325,14.110425 C13.535325,12.52305 13.9932,11.439675 14.847075,10.379925 C14.925825,10.2798 14.833575,10.179675 14.718825,10.258425 C14.6907,10.2798 14.6682,10.30005 14.640075,10.32255 C13.436325,11.248425 12.608325,12.7503 12.608325,14.423175 C12.608325,16.558425 13.985325,17.6328 13.985325,19.57005 C13.985325,21.512925 11.746575,22.3893 11.746575,24.2748 C11.746575,26.168175 13.9482,27.671175 13.9482,29.421675 C13.9482,31.023675 11.838825,33.053175 12.0807,35.017425 C11.6532,34.8678 11.240325,34.70355 10.82745,34.5258 C10.855575,32.582925 12.729825,30.94605 12.729825,29.30805 C12.729825,27.506925 10.605825,26.033175 10.605825,24.2748 C10.605825,22.5243 12.887325,21.476925 12.887325,19.598175 C12.887325,17.719425 11.753325,16.657425 11.753325,14.735925 C11.753325,13.02705 12.35295,11.8953 13.393575,10.656675 C13.157325,10.778175 12.9717,10.91205 12.7737,11.08305 C11.6757,12.0528 10.96245,13.568175 10.96245,15.0633 C10.96245,17.09955 11.953575,18.01755 11.953575,19.611675 C11.953575,21.2058 9.63045,22.466925 9.63045,24.2748 C9.63045,26.09055 11.647575,27.635175 11.647575,29.17305 C11.647575,30.553425 9.908325,32.39055 9.85095,34.063425 C9.494325,33.885675 9.152325,33.6933 8.810325,33.494175 C8.938575,31.96305 10.576575,30.7458 10.576575,29.20905 C10.576575,28.64655 10.31445,28.1763 10.092825,27.80505 C10.770075,29.9268 8.2692,31.18005 8.040825,33.0093 C7.590825,32.7033 7.149825,32.382675 6.722325,32.0418 C6.920325,31.6998 7.2207,31.286925 7.5627,31.059675 C7.39845,30.8673 7.248825,30.66705 7.0992,30.467925 C6.699825,30.710925 6.33645,31.165425 6.1092,31.52205 C5.7447,31.201425 5.388075,30.8673 5.046075,30.510675 C5.35995,30.119175 5.77395,29.51505 6.364575,29.35755 C6.229575,29.122425 6.094575,28.8873 5.973075,28.645425 C5.2812,28.83105 4.81095,29.47905 4.454325,29.869425 C4.141575,29.507175 3.83445,29.13705 3.5487,28.7523 C4.07745,28.411425 4.5117,27.54855 5.460075,27.513675 C5.538825,27.70605 5.61645,27.905175 5.7087,28.09755 C5.808825,28.31805 5.95845,28.411425 6.25095,28.411425 C7.127325,28.411425 8.488575,27.842175 9.537075,26.7948 C8.859825,25.556175 8.652825,24.921675 8.652825,24.273675 C8.652825,22.637925 10.983825,21.256425 10.983825,19.66905 C10.983825,18.074925 10.178325,17.163675 10.178325,15.440175 C10.178325,13.8888 10.884825,12.5433 11.796075,11.410425 C11.5677,11.554425 11.3697,11.7108 11.1762,11.909925 C10.1862,12.913425 9.52245,14.39505 9.52245,15.746175 C9.52245,17.5833 10.20645,18.331425 10.20645,19.690425 C10.20645,20.943675 7.55595,22.67955 7.854075,24.38955 C6.9282,25.23555 5.82345,25.61355 4.854825,25.61355 C4.9392,25.961175 5.039325,26.3178 5.1462,26.658675 C4.062825,26.71605 3.563325,27.641925 2.9862,27.947925 C2.70045,27.5283 2.4372,27.0873 2.18745,26.638425 C3.158325,26.539425 3.4497,25.292925 4.8042,25.385175 C4.7322,25.0578 4.674825,24.723675 4.625325,24.38955 C3.072825,24.28155 2.715075,25.598925 1.689075,25.648425 C1.475325,25.18605 1.2762,24.7158 1.097325,24.23205 C2.5227,24.296175 3.007575,22.9158 4.50495,22.9293 C4.497075,22.793175 4.497075,22.651425 4.497075,22.50855 C4.497075,22.253175 4.50495,22.00455 4.519575,21.7548 C2.7657,21.71205 2.2302,23.220675 0.712575,23.072175 C0.577575,22.595175 0.456075,22.10355 0.3492,21.61305 C2.267325,21.8538 2.964825,20.2383 4.68945,20.246175 C4.7682,19.782675 4.868325,19.32705 4.996575,18.88605 C2.9007,18.792675 2.17395,20.615175 0.13545,20.2743 C0.078075,19.85355 0.042075,19.427175 0.021825,18.992925 C2.3877,19.26405 3.2787,17.312175 5.4387,17.55405 C5.6457,17.035425 5.880825,16.535925 6.144075,16.06005 C3.4362,15.581925 2.51595,17.84655 0.00045,17.4978 C0.27045,7.787925 8.232075,-0.00045 18.019575,-0.00045 C27.80595,-0.00045 35.767575,7.787925 36.046575,17.4978 C33.5232,17.84655 32.60295,15.581925 29.89395,16.06005 C30.158325,16.535925 30.401325,17.035425 30.599325,17.55405 C32.759325,17.312175 33.650325,19.26405 36.0252,18.992925 M18.019575,15.5898 L18.019575,15.5898 C17.79795,15.5898 17.7552,15.51105 17.605575,15.51105 C17.463825,15.51105 17.184825,15.624675 17.121825,15.7248 C17.128575,15.78105 17.14995,15.824925 17.184825,15.867675 C17.506575,15.917175 17.64945,16.094925 18.019575,16.094925 C18.3897,16.094925 18.532575,15.917175 18.8532,15.867675 C18.89595,15.824925 18.910575,15.78105 18.917325,15.7248 C18.861075,15.624675 18.5832,15.51105 18.440325,15.51105 C18.289575,15.51105 18.240075,15.5898 18.019575,15.5898 M16.71345,16.700175 L16.71345,16.700175 C16.71345,16.700175 16.615575,16.736175 16.5942,16.821675 C16.9722,17.11305 17.2287,17.775675 18.019575,17.775675 C18.81045,17.775675 19.074825,17.11305 19.4517,16.821675 C19.423575,16.736175 19.331325,16.700175 19.331325,16.700175 C19.331325,16.700175 18.831825,16.821675 18.019575,16.821675 C17.2062,16.821675 16.71345,16.700175 16.71345,16.700175 M19.83645,7.787925 L19.83645,7.787925 C19.6722,7.758675 18.910575,7.630425 18.019575,7.630425 C17.128575,7.630425 16.365825,7.758675 16.208325,7.787925 C16.11495,7.801425 16.080075,7.715925 16.15095,7.66755 C16.215075,7.616925 18.019575,6.242175 18.019575,6.242175 C18.019575,6.242175 19.8297,7.616925 19.887075,7.66755 C19.95795,7.715925 19.92195,7.801425 19.83645,7.787925"></path>
                        </g>
                    </g>
                </g>
            </g>
        </g>
    </g>
</svg>