<svg width="32" height="32" xmlns="http://www.w3.org/2000/svg"><g fill="none" fill-rule="evenodd"><circle fill="#FFF" cx="16" cy="16" r="16"/><path d="M22.89 12.35a.303.303 0 00-.12-.527l-.479-.12a.303.303 0 01-.2-.425l.267-.539a.303.303 0 00-.352-.424l-1.211.34a.304.304 0 01-.267-.05 3.029 3.029 0 00-4.846 2.424v.218a.151.151 0 01-.133.152c-1.703.2-3.332-.667-5.09-2.69a.308.308 0 00-.308-.091.303.303 0 00-.176.254 4.589 4.589 0 00.279 2.98.152.152 0 01-.158.219l-.678-.133a.303.303 0 00-.345.357 3.12 3.12 0 001.435 2.29.152.152 0 010 .273l-.32.127a.303.303 0 00-.158.418 2.64 2.64 0 001.938 1.502.151.151 0 010 .285 6.628 6.628 0 01-2.599.503.309.309 0 00-.12.606 12.154 12.154 0 004.93 1.169 7.62 7.62 0 004.241-1.212 7.573 7.573 0 003.368-6.318v-.527c0-.09.04-.174.11-.23l.993-.83z" fill="#949494"/></g></svg>