<?xml version="1.0" encoding="UTF-8"?>
<svg width="82px" height="82px" viewBox="0 0 82 82" version="1.1" xmlns="http://www.w3.org/2000/svg" xmlns:xlink="http://www.w3.org/1999/xlink">
    <title>Uber</title>
    <defs>
        <circle id="path-1" cx="36" cy="36" r="36"></circle>
        <filter x="-11.1%" y="-9.7%" width="122.2%" height="122.2%" filterUnits="objectBoundingBox" id="filter-2">
            <feOffset dx="0" dy="1" in="SourceAlpha" result="shadowOffsetOuter1"></feOffset>
            <feGaussianBlur stdDeviation="2.5" in="shadowOffsetOuter1" result="shadowBlurOuter1"></feGaussianBlur>
            <feColorMatrix values="0 0 0 0 0   0 0 0 0 0   0 0 0 0 0  0 0 0 0.2 0" type="matrix" in="shadowBlurOuter1" result="shadowMatrixOuter1"></feColorMatrix>
            <feMorphology radius="1" operator="erode" in="SourceAlpha" result="shadowSpreadOuter2"></feMorphology>
            <feOffset dx="0" dy="3" in="shadowSpreadOuter2" result="shadowOffsetOuter2"></feOffset>
            <feGaussianBlur stdDeviation="0.5" in="shadowOffsetOuter2" result="shadowBlurOuter2"></feGaussianBlur>
            <feColorMatrix values="0 0 0 0 0   0 0 0 0 0   0 0 0 0 0  0 0 0 0.12 0" type="matrix" in="shadowBlurOuter2" result="shadowMatrixOuter2"></feColorMatrix>
            <feOffset dx="0" dy="2" in="SourceAlpha" result="shadowOffsetOuter3"></feOffset>
            <feGaussianBlur stdDeviation="1" in="shadowOffsetOuter3" result="shadowBlurOuter3"></feGaussianBlur>
            <feColorMatrix values="0 0 0 0 0   0 0 0 0 0   0 0 0 0 0  0 0 0 0.14 0" type="matrix" in="shadowBlurOuter3" result="shadowMatrixOuter3"></feColorMatrix>
            <feMerge>
                <feMergeNode in="shadowMatrixOuter1"></feMergeNode>
                <feMergeNode in="shadowMatrixOuter2"></feMergeNode>
                <feMergeNode in="shadowMatrixOuter3"></feMergeNode>
            </feMerge>
        </filter>
        <polygon id="path-3" points="0.835021429 0.405 12.8802411 0.405 12.8802411 15.9996745 0.835021429 15.9996745"></polygon>
    </defs>
    <g id="Home" stroke="none" stroke-width="1" fill="none" fill-rule="evenodd">
        <g id="DS/Home-Page---Update" transform="translate(-69.000000, -1754.000000)">
            <g id="Brands-You-Love" transform="translate(74.000000, 1686.000000)">
                <g id="Uber" transform="translate(0.000000, 72.000000)">
                    <g id="Oval">
                        <use fill="black" fill-opacity="1" filter="url(#filter-2)" xlink:href="#path-1"></use>
                        <use fill="#FFFFFF" fill-rule="evenodd" xlink:href="#path-1"></use>
                    </g>
                    <g id="Group-10" transform="translate(13.000000, 27.000000)">
                        <path d="M0.0055,1.0053 L2.2775,1.0053 C2.2865,1.0383 2.2925,1.0713 2.2965,1.1053 C2.2995,1.1623 2.2965,1.2203 2.2965,1.2773 L2.2965,10.3793 C2.2965,10.8813 2.3485,11.3773 2.4915,11.8593 C2.6065,12.2523 2.7795,12.6243 3.0085,12.9633 C3.4485,13.6073 4.0315,14.0623 4.7685,14.3153 C5.5745,14.5923 6.3935,14.6123 7.2065,14.3593 C8.2545,14.0323 8.9895,13.3433 9.4435,12.3513 C9.6475,11.9053 9.7685,11.4273 9.8035,10.9393 C9.8195,10.7283 9.8285,10.5153 9.8285,10.3033 C9.8305,7.2803 9.8305,4.2583 9.8285,1.2363 C9.8225,1.1613 9.8265,1.0853 9.8425,1.0113 C9.8655,1.0053 9.8905,1.0023 9.9135,1.0003 L12.1085,1.0003 C12.1165,1.0353 12.1245,1.0713 12.1295,1.1083 C12.1325,1.1533 12.1295,1.1993 12.1295,1.2453 L12.1295,16.0873 C12.1295,16.1593 12.1395,16.2353 12.1135,16.3163 C12.0875,16.3233 12.0605,16.3283 12.0315,16.3313 L9.9455,16.3313 C9.9245,16.3303 9.9025,16.3273 9.8825,16.3233 C9.8375,16.2763 9.8515,16.2223 9.8515,16.1723 L9.8515,15.1383 C9.8515,15.0823 9.8475,15.0253 9.8455,14.9693 C9.7775,14.9563 9.7565,15.0053 9.7275,15.0353 C8.9015,15.8393 7.8425,16.3603 6.7015,16.5243 C5.5735,16.6863 4.4755,16.5733 3.4245,16.1293 C1.9825,15.5133 0.9885,14.4553 0.4225,12.9963 C0.2155,12.4653 0.0865,11.9073 0.0395,11.3403 C0.0175,11.0773 0.0035,10.8133 0.0035,10.5493 C0.0005,7.4403 -0.0005,4.3313 0.0005,1.2233 C0.0005,1.1553 0.0035,1.0883 0.0055,1.0053" id="Fill-1" fill="#020303"></path>
                        <g id="Group-5" transform="translate(13.000000, 0.594600)">
                            <mask id="mask-4" fill="white">
                                <use xlink:href="#path-3"></use>
                            </mask>
                            <g id="Clip-4"></g>
                            <path d="M6.8747,14.0489 C7.2607,14.0439 7.6437,13.9819 8.0127,13.8669 C9.9607,13.2379 11.1287,11.1599 10.5407,9.0899 C10.0227,7.2729 8.2637,6.0849 6.3757,6.3289 C5.5477,6.4269 4.7747,6.7979 4.1797,7.3819 C3.2007,8.3309 2.8047,9.7049 3.1067,11.0519 C3.4737,12.6809 4.9187,14.0329 6.8737,14.0489 L6.8747,14.0489 Z M3.0307,14.3509 L3.0307,15.6919 C2.9787,15.7489 2.9237,15.7349 2.8747,15.7349 L1.9267,15.7349 L1.0307,15.7349 C0.9737,15.7349 0.9177,15.7299 0.8517,15.7269 C0.8457,15.6869 0.8397,15.6549 0.8377,15.6219 C0.8357,15.5819 0.8377,15.5419 0.8377,15.5009 L0.8377,0.6439 C0.8327,0.5759 0.8347,0.5079 0.8437,0.4419 C0.8517,0.4319 0.8597,0.4229 0.8687,0.4149 C0.8737,0.4119 0.8797,0.4109 0.8857,0.4109 L2.9527,0.4049 C2.9757,0.4049 2.9977,0.4099 3.0297,0.4129 C3.0377,0.4449 3.0437,0.4779 3.0477,0.5109 C3.0507,0.5619 3.0477,0.6139 3.0477,0.6659 L3.0477,5.7499 C3.0477,5.8109 3.0517,5.8719 3.0547,5.9389 C3.1237,5.9299 3.1517,5.8829 3.1867,5.8499 C3.4747,5.5759 3.7907,5.3339 4.1297,5.1279 C4.8127,4.7099 5.5807,4.4479 6.3777,4.3619 C9.3067,4.0429 11.9347,5.8759 12.6777,8.6239 C12.8707,9.3469 12.9267,10.0999 12.8417,10.8439 C12.5907,13.1699 10.8957,15.2439 8.3907,15.8409 C7.7977,15.9829 7.1847,16.0299 6.5767,15.9809 C5.2777,15.8729 4.1457,15.3789 3.1877,14.4919 C3.1477,14.4549 3.1057,14.4179 3.0307,14.3509 L3.0307,14.3509 Z" id="Fill-3" fill="#020303" mask="url(#mask-4)"></path>
                        </g>
                        <path d="M29.0397,9.7172 L35.6077,9.7172 L35.7287,9.7172 C35.7607,9.7152 35.7927,9.7092 35.8327,9.7032 C35.8267,9.6642 35.8247,9.6362 35.8177,9.6092 C35.7497,9.3302 35.6497,9.0592 35.5217,8.8012 C34.8547,7.4572 33.4917,6.7442 32.1097,6.8872 C31.4887,6.9452 30.8967,7.1762 30.4007,7.5542 C29.7187,8.0752 29.2867,8.7652 29.0677,9.5912 C29.0597,9.6232 29.0537,9.6552 29.0397,9.7172 M38.0607,11.4702 C37.7987,11.4722 37.5457,11.4702 37.2947,11.4702 L30.5187,11.4702 L29.7777,11.4702 L29.0127,11.4702 C29.0097,11.5072 29.0097,11.5442 29.0127,11.5812 C29.2997,13.0082 30.3167,14.1172 31.6687,14.4982 C32.1177,14.6232 32.5857,14.6652 33.0507,14.6232 C33.8157,14.5612 34.5047,14.3042 35.1087,13.8282 C35.3647,13.6242 35.5977,13.3922 35.8017,13.1352 C35.8377,13.0912 35.8617,13.0362 35.9187,13.0122 C36.1457,13.1562 37.4037,14.0952 37.4967,14.1942 C37.4607,14.2422 37.4247,14.2932 37.3847,14.3422 C36.5087,15.4272 35.3947,16.1342 34.0287,16.4292 C33.4607,16.5502 32.8787,16.5922 32.2987,16.5542 C31.5927,16.5172 30.8967,16.3582 30.2447,16.0852 C28.5017,15.3482 27.2637,13.8582 26.8847,11.9902 C26.5607,10.3882 26.8207,8.8772 27.7277,7.5052 C28.6027,6.1812 29.8317,5.3622 31.3897,5.0472 C31.8967,4.9462 32.4167,4.9162 32.9337,4.9582 C33.7057,5.0162 34.4387,5.2092 35.1247,5.5692 C36.3287,6.2042 37.1617,7.1742 37.6597,8.4352 C37.8677,8.9712 37.9987,9.5342 38.0497,10.1072 C38.0907,10.5382 38.0737,10.9692 38.0767,11.4002 C38.0727,11.4242 38.0667,11.4472 38.0607,11.4702" id="Fill-6" fill="#020303"></path>
                        <path d="M44.9137,7.1254 C44.8587,7.1274 44.8037,7.1334 44.7477,7.1334 C44.4597,7.1334 44.1727,7.1244 43.8857,7.1374 C43.1557,7.1734 42.5567,7.4694 42.1057,8.0494 C41.8787,8.3474 41.7157,8.6894 41.6287,9.0544 C41.5597,9.3164 41.5237,9.5844 41.5197,9.8554 L41.5197,10.0964 L41.5197,16.3104 C41.4807,16.3204 41.4397,16.3274 41.3987,16.3314 L39.4177,16.3314 C39.3897,16.3314 39.3607,16.3264 39.3247,16.3224 C39.3177,16.2894 39.3117,16.2544 39.3097,16.2204 C39.3067,16.1684 39.3097,16.1174 39.3097,16.0654 L39.3097,5.1834 C39.3377,5.1734 39.3677,5.1664 39.3977,5.1624 L41.3967,5.1624 C41.4247,5.1624 41.4517,5.1694 41.4877,5.1734 C41.4967,5.2834 41.4997,5.3944 41.4957,5.5044 L41.4957,5.8324 L41.4957,6.4634 C41.5557,6.4734 41.5637,6.4304 41.5807,6.4054 C41.6997,6.2294 41.8367,6.0644 41.9877,5.9164 C42.3947,5.5134 42.9147,5.2434 43.4767,5.1384 C43.7147,5.0914 43.9547,5.0684 44.1957,5.0714 C44.3917,5.0734 44.5867,5.0714 44.7817,5.0714 C44.8257,5.0714 44.8707,5.0774 44.9147,5.0804 C44.9237,5.0984 44.9297,5.1174 44.9327,5.1364 L44.9327,7.0664 C44.9297,7.0864 44.9227,7.1064 44.9137,7.1254" id="Fill-8" fill="#020303"></path>
                    </g>
                </g>
            </g>
        </g>
    </g>
</svg>