<svg width="89" height="32" xmlns="http://www.w3.org/2000/svg" xmlns:xlink="http://www.w3.org/1999/xlink"><defs><path id="a" d="M0 .067h31.762v31.625H0z"/><path id="c" d="M.156.113H9.58v20.854H.156z"/></defs><g fill="none" fill-rule="evenodd"><g transform="translate(0 .24)"><mask id="b" fill="#fff"><use xlink:href="#a"/></mask><path d="M15.881.067c8.771 0 15.881 7.08 15.881 15.813s-7.11 15.812-15.88 15.812C7.11 31.692 0 24.612 0 15.88 0 7.147 7.11.067 15.881.067" fill="#00A8CC" mask="url(#b)"/></g><path d="M15.881 25.966c-4.712 0-7.618-2.724-7.618-7.821V8.879h3.869v9.096c0 2.82 1.393 4.343 3.783 4.343 2.39 0 3.784-1.393 3.784-4.23V8.823h3.896v9.152c.08 5.386-3.002 7.991-7.714 7.991" fill="#FFF"/><path fill="#272626" d="M51.421 3.437H36.18v3.418h5.992v21.429h3.262V6.854h5.987z"/><g transform="translate(79.42 7.317)"><mask id="d" fill="#fff"><use xlink:href="#c"/></mask><path fill="#272626" mask="url(#d)" d="M6.323 4.805V.113H2.891v4.692H.156v3.13H2.89v13.032h3.432V7.935H9.58v-3.13z"/></g><path d="M51.835 18.207a6.213 6.213 0 012.44-2.82 5.425 5.425 0 012.442-.564 4.32 4.32 0 012.424.66 5.781 5.781 0 012.328 2.724h-9.634zm12.097-2.493a6.745 6.745 0 00-1.16-1.393 8.34 8.34 0 00-5.993-2.549 8.019 8.019 0 00-6.927 3.592 8.241 8.241 0 00-1.393 4.692c-.113 4.59 3.532 8.401 8.142 8.513.091.003.183.003.275.003a8.923 8.923 0 007.56-3.65l-2.44-1.91a5.893 5.893 0 01-4.826 2.317 5.781 5.781 0 01-3.552-1.156c-1.047-.693-1.744-2.024-2.033-3.649h13.786a12.811 12.811 0 00-1.439-4.81zm8.841 2.724c-1.744-.694-2.56-1.393-2.56-2.086 0-1.044.697-1.506 2.096-1.506a3.234 3.234 0 011.512.35c.465.23.929.563 1.512.924l2.21-2.024c-1.92-1.506-3.665-2.318-5.177-2.318a5.726 5.726 0 00-3.784 1.274 4.24 4.24 0 00-1.512 3.068v.35a3.796 3.796 0 001.048 2.73c.696.693 2.033 1.392 3.896 2.198 1.92.694 2.832 1.506 2.832 2.431a1.471 1.471 0 01-.815 1.275 3.277 3.277 0 01-1.92.563 4.176 4.176 0 01-2.945-1.392l-2.034 1.274c1.394 2.087 2.736 3.186 4.945 3.186a5.32 5.32 0 003.896-1.506 4.902 4.902 0 001.626-3.518 4.05 4.05 0 00-1.161-2.955c-.584-.93-1.92-1.624-3.665-2.318" fill="#272626"/></g></svg>